<svg id="_x33_0" enable-background="new 0 0 64 64" height="512" viewBox="0 0 64 64" width="512" xmlns="http://www.w3.org/2000/svg"><g><circle cx="24" cy="22" r="1"/><circle cx="27" cy="14" r="1"/><circle cx="30" cy="22" r="1"/><path d="m29 24.764c-.381.762-1.147 1.236-2 1.236s-1.619-.474-2-1.236l-.105-.211-1.789.895.105.211c.722 1.444 2.174 2.341 3.789 2.341s3.067-.897 3.789-2.342l.105-.211-1.789-.895z"/><path d="m55.782 28.816 4.799-14.397-14.397 4.799-2.074 7.259-4.074 4.074c-1.374-1.66-2.227-3.708-2.423-5.867l-.613-6.727v-2.957c0-3.818-2.128-7.23-5.488-8.924l.406-1.622c.055-.22.082-.446.082-.673 0-1.533-1.248-2.781-2.781-2.781h-4.438c-1.533 0-2.781 1.248-2.781 2.781 0 .227.027.453.083.674l.409 1.634c-2.41 1.218-4.212 3.334-5.019 5.9l-1.183 1.774c-.517.774-1.382 1.237-2.312 1.237s-1.796-.463-2.313-1.237l-1.555-2.332-2.155 2.155c-.645.645-1 1.502-1 2.414 0 .808.278 1.572.79 2.185l-.259.515c-.348.698-.531 1.479-.531 2.256 0 1.469.527 2.816 1.402 3.864l-1.5.9c-1.762 1.057-2.857 2.991-2.857 5.045 0 2.223 1.273 4.201 3.157 5.198-.756 1.135-1.157 2.457-1.157 3.824 0 1.721.855 3.318 2.287 4.272.446.298.713.796.713 1.334 0 .61-.339 1.159-.886 1.432l-.584.291c-1.56.781-2.53 2.35-2.53 4.095 0 1.433.685 2.802 1.831 3.662l2.569 1.927 1.199-1.6-2.568-1.927c-.645-.484-1.031-1.255-1.031-2.062 0-.982.546-1.866 1.425-2.306l.584-.292c.03-.015.057-.035.087-.051.154.772.495 1.5 1.011 2.106l4.511 5.3-1.704 1.704c-.581.581-.914 1.385-.914 2.207 0 1.721 1.4 3.121 3.121 3.121.822 0 1.626-.333 2.207-.914l1.349-1.349.549.645c.838 1.024 2.077 1.611 3.4 1.611l15.7.008-1.266-4.43c-.566-1.979-.894-4.015-1.007-6.069l4.271 1.335c.348.108.709.163 1.073.163 1.987 0 3.603-1.616 3.603-3.636 0-.271-.039-.54-.1-.804.031.017.059.038.091.053l.584.292c.879.44 1.425 1.324 1.425 2.306 0 .807-.386 1.578-1.03 2.063l-2.57 1.926 1.199 1.6 2.57-1.927c1.146-.86 1.83-2.229 1.83-3.662 0-1.745-.97-3.313-2.53-4.095l-.584-.292c-.546-.272-.885-.821-.885-1.431 0-.537.267-1.035.713-1.333 1.432-.955 2.287-2.552 2.287-4.273 0-1.368-.401-2.692-1.159-3.828l-1.754-2.631 3.437-3.437zm-1.564-1.632-5.927 1.693-.377-.377 8.798-8.798zm-6.402-6.402 7.481-2.494-8.797 8.798-.377-.377zm-2.816 7.632 1.586 1.586h-3.172zm-11.067 14.239-2.117-.941c-.027-.012-.055-.02-.082-.031l5.68-5.68h3.172zm-12.012 8.84 3.151-3.151c.491.576 1.128 1.027 1.876 1.296l-3.438 3.438zm-.96-35.04 6.039-6.039 6.586 6.586h-12.745c.054-.178.095-.36.12-.547zm9.039 18.478v.069c0 1.654-1.346 3-3 3s-3-1.346-3-3v-.069c.623-.707 1-1.633 1-2.646v-.548c.641.166 1.308.263 2 .263s1.359-.097 2-.263v.548c0 1.013.377 1.939 1 2.646zm-7-2.646c0 .698-.359 1.309-.906 1.667l-.516-1.033c-.177-.353-.411-.66-.682-.925.062-.411.104-.826.104-1.242 0-.564-.069-1.127-.182-1.68.608.74 1.349 1.363 2.182 1.846zm4-2.285c-3.309 0-6-2.691-6-6v-5h12v5c0 3.309-2.691 6-6 6zm-9.417-3.61.738 1.49c.445.887.679 1.88.679 2.872 0 .096-.012.191-.016.287-.168-.025-.339-.039-.512-.039-1.471 0-2.723.923-3.228 2.217-.357-.138-.737-.217-1.123-.217-1.214 0-2.257.704-2.773 1.719l-.269-.404c-.706-1.058-1.079-2.291-1.079-3.563 0-.992.234-1.985.679-2.872l.57-1.141c.555.169 1.142.261 1.751.261h1.955c.943 0 1.832-.223 2.628-.61zm-4.471 10.593c-.072-.152-.112-.318-.112-.484v-.378c0-.618.503-1.121 1.121-1.121.295 0 .584.119.793.328l.12.12c-.726.394-1.374.915-1.922 1.535zm4.022-2.263-.134-.134v-.114c0-.812.66-1.472 1.472-1.472.562 0 1.066.312 1.317.813l.287.574-2.423.242c-.176.019-.346.06-.519.091zm1.146 11.423c.599.948 1.051 1.972 1.336 3.052l-1.885-1.879c.195-.386.377-.777.549-1.173zm5.72-.685c0 .345.052.677.126 1.002l-2.493 2.493c-.413-1.713-1.166-3.33-2.234-4.753l-.278-.37c.579-1.934.879-3.95.879-5.977v-1.447l1.398-.14c.255-.025.502-.075.739-.144.512 2.216 2.493 3.878 4.863 3.878s4.351-1.662 4.862-3.879c.237.07.484.119.739.144l1.563.156-4.652 4.652c-.348-.043-.699-.073-1.054-.073-2.458 0-4.458 2-4.458 4.458zm18.586-11.458h-3.172l2-2h3.172zm-3.969-2.031-2.625 2.625-3.191-.319c-1.027-.102-1.801-.958-1.801-1.99v-1.368c2.387-1.386 4-3.964 4-6.918v-5h.087l.533 5.865c.238 2.625 1.296 5.111 2.997 7.105zm-3.617-16.969v.586l-4.693-4.693.704-2.815c2.455 1.417 3.989 4.022 3.989 6.922zm-5-11.219c0 .064-.008.129-.022.189l-1.319 5.274-.659-.658v-5.586h1.219c.43 0 .781.351.781.781zm-5.219-.781h1.219v5.586l-.659.659-1.318-5.273c-.015-.062-.023-.126-.023-.191 0-.43.351-.781.781-.781zm-1.791 5.083.703 2.81-3.247 3.247c-.129-.197-.276-.384-.446-.554l-.702-.702c.556-2.035 1.878-3.752 3.692-4.801zm-13.621 8.917c-.267-.268-.414-.622-.414-1s.147-.732.414-1l.431-.431.201.303c.89 1.333 2.376 2.128 3.977 2.128s3.087-.795 3.977-2.128l.201-.303.43.431c.267.268.414.622.414 1s-.147.732-.414 1l-.803.803.895 1.789c.211.422.322.893.322 1.363 0 2.231-1.814 4.045-4.045 4.045h-1.955c-2.23 0-4.045-1.814-4.045-4.045 0-.47.111-.941.321-1.362l.896-1.79zm-3.369 13.765c0-1.355.723-2.632 1.886-3.33l1.113-.668-.109.218c-.582 1.163-.89 2.466-.89 3.767 0 1.313.313 2.589.894 3.751-1.675-.446-2.894-1.972-2.894-3.738zm2 9.022c0-.972.284-1.911.823-2.719l.312-.467 1.909.273c.043.352.126.701.285 1.022l.542 1.084c-.031.076-.072.146-.1.224l-1.484 4.081c-.247-.338-.532-.649-.891-.889-.874-.583-1.396-1.558-1.396-2.609zm7.914 20.885c-.209.209-.498.328-.793.328-.618 0-1.121-.503-1.121-1.121 0-.295.119-.584.328-.793l1.59-1.59 1.458 1.713zm4.848-.571-9.132-10.73c-.406-.477-.63-1.084-.63-1.71 0-.322.056-.639.165-.94l2.485-6.834c.653-1.794 2.302-3.076 4.202-3.267l.148-.015v1.247c0 3.198-.821 6.366-2.374 9.162l-.367.66 9.059 9.032c.445.445.7 1.062.7 1.691v.203c0 1.318-1.073 2.392-2.392 2.392-.721.001-1.396-.318-1.864-.891zm14.375-.981.537 1.879-9.374-.004c.451-.69.718-1.51.718-2.393v-.203c0-1.156-.469-2.288-1.287-3.106l-.805-.803 4.164-4.164 4.939 1.544c.072 2.454.433 4.89 1.108 7.25zm6.26-7.12c-.162 0-.323-.024-.479-.072l-13.194-4.125c-1.031-.322-1.724-1.264-1.724-2.345 0-1.355 1.103-2.458 2.458-2.458.884 0 1.739.182 2.545.54l7.591 3.374.813-1.828-3.516-1.563 4.004-4.004c.098.219.196.439.262.672l2.78 9.732c.042.145.063.294.063.474 0 .884-.719 1.603-1.603 1.603zm3.78-13.932c.539.808.823 1.747.823 2.719 0 1.051-.522 2.025-1.396 2.608-.467.311-.836.727-1.108 1.197l-1.414-4.95c-.163-.57-.4-1.107-.696-1.613l2.26-2.26z"/></g></svg>