<svg id="_x31__x2C_5" enable-background="new 0 0 24 24" height="512" viewBox="0 0 24 24" width="512" xmlns="http://www.w3.org/2000/svg"><path d="m20 16c-1.103 0-2-.897-2-2s.897-2 2-2 2 .897 2 2-.897 2-2 2zm0-2.5c-.276 0-.5.224-.5.5s.224.5.5.5.5-.224.5-.5-.224-.5-.5-.5z"/><path d="m23.25 21c-.414 0-.75-.336-.75-.75v-.5c0-.689-.561-1.25-1.25-1.25h-2.5c-.414 0-.75-.336-.75-.75s.336-.75.75-.75h2.5c1.517 0 2.75 1.233 2.75 2.75v.5c0 .414-.336.75-.75.75z"/><path d="m4 16c-1.103 0-2-.897-2-2s.897-2 2-2 2 .897 2 2-.897 2-2 2zm0-2.5c-.276 0-.5.224-.5.5s.224.5.5.5.5-.224.5-.5-.224-.5-.5-.5z"/><path d="m.75 21c-.414 0-.75-.336-.75-.75v-.5c0-1.517 1.233-2.75 2.75-2.75h2.5c.414 0 .75.336.75.75s-.336.75-.75.75h-2.5c-.689 0-1.25.561-1.25 1.25v.5c0 .414-.336.75-.75.75z"/><path d="m12 16.5c-1.654 0-3-1.346-3-3s1.346-3 3-3 3 1.346 3 3-1.346 3-3 3zm0-4.5c-.827 0-1.5.673-1.5 1.5s.673 1.5 1.5 1.5 1.5-.673 1.5-1.5-.673-1.5-1.5-1.5z"/><path d="m16.75 23c-.414 0-.75-.336-.75-.75v-1.5c0-.689-.561-1.25-1.25-1.25h-5.5c-.689 0-1.25.561-1.25 1.25v1.5c0 .414-.336.75-.75.75s-.75-.336-.75-.75v-1.5c0-1.517 1.233-2.75 2.75-2.75h5.5c1.517 0 2.75 1.233 2.75 2.75v1.5c0 .414-.336.75-.75.75z"/><path d="m15.467 9h-6.934c-.361 0-.67-.257-.737-.611l-.783-4.167c-.052-.274.053-.554.272-.727.219-.172.515-.211.77-.097l1.68.746 1.618-2.771c.27-.461 1.026-.461 1.296 0l1.618 2.771 1.68-.746c.255-.114.552-.075.77.097.219.173.323.453.272.727l-.783 4.167c-.068.354-.378.611-.739.611zm-6.312-1.5h5.69l.404-2.152-.989.439c-.35.153-.759.022-.952-.308l-1.308-2.241-1.309 2.242c-.194.33-.603.461-.952.308l-.989-.44z"/></svg>