<?xml version="1.0"?>
<svg xmlns="http://www.w3.org/2000/svg" viewBox="0 0 512 512" width="512" height="512"><g id="outline"><path d="M430.074,362.794l-13.209-15.41a173.679,173.679,0,0,1-40.254-89.436l-.686-4.973a8,8,0,0,0-5.976-6.665l-48.436-12.168A2,2,0,0,1,320,232.2V217.973l48.609,10.8a8,8,0,0,0,9.647-9l-10.345-68.965a8,8,0,0,0-12.355-5.465l-.445.3q-8.809,5.87-17.983,11.017a96.48,96.48,0,0,0-7.807-10.67L361.4,113.914l32.171-28a8,8,0,0,0,.357-11.477A190.458,190.458,0,0,0,256,16C150.131,16,64,102.131,64,208a191.979,191.979,0,0,0,46.448,125.22,8,8,0,0,0,11.058,1.029l50.045-40a8,8,0,0,0,2.1-2.57L176,297.541v27.792L153.6,355.2a7.975,7.975,0,0,0-1.58,4.654A1.462,1.462,0,0,0,152,360v56.118A18.022,18.022,0,0,0,136,434v14H124a20.023,20.023,0,0,0-20,20v20a8,8,0,0,0,8,8H320a8,8,0,0,0,8-8V468a20.023,20.023,0,0,0-20-20H296V434a18.022,18.022,0,0,0-16-17.882V360a1.462,1.462,0,0,0-.02-.146,7.975,7.975,0,0,0-1.58-4.654l-22.978-30.638a81.211,81.211,0,0,1,6.484-54.487l3.438-6.875a39.028,39.028,0,0,1,.322,35.579l-.821,1.643a8,8,0,0,0,2.963,10.391l88.571,54.506A71.948,71.948,0,0,0,394.114,376H424a8,8,0,0,0,6.074-13.206ZM360.705,210.628l-46.97-10.438A8,8,0,0,0,304,208v24.2a17.978,17.978,0,0,0,13.614,17.458l43.2,10.853A189.79,189.79,0,0,0,379.472,320h-5.525a14.007,14.007,0,0,1-7.053-1.907l-82.233-47.969a55.016,55.016,0,0,0-15-27.781,8.013,8.013,0,0,0-6.788-2.263l-26.88,3.84A407.443,407.443,0,0,1,178.578,248H176V208h25.94a291.223,291.223,0,0,0,151.977-42.623ZM247.6,262.92A97.234,97.234,0,0,0,238.3,320H192V296a8,8,0,0,0-.572-2.971l-11.616-29.04a423.693,423.693,0,0,0,58.44-4.229l11.764-1.681ZM201.94,192H177.62a80.011,80.011,0,0,1,145.288-27.884A275.287,275.287,0,0,1,201.94,192Zm-73.683,8H80.19A174.865,174.865,0,0,1,90.5,148.106l44.409,18.4A127.2,127.2,0,0,0,128.257,200Zm.02,16a127.863,127.863,0,0,0,6.628,33.5l-44.4,18.391A176.089,176.089,0,0,1,80.187,216Zm12.776-64.271L96.647,133.335A176.637,176.637,0,0,1,126.081,89.4l33.976,33.976A128.467,128.467,0,0,0,141.053,151.729Zm30.319-39.672L137.4,78.081a176.637,176.637,0,0,1,43.939-29.434l18.394,44.406A128.467,128.467,0,0,0,171.372,112.057ZM214.5,86.909,196.106,42.5A174.865,174.865,0,0,1,248,32.19V80.257A127.2,127.2,0,0,0,214.5,86.909ZM264,32.181a175.584,175.584,0,0,1,51.933,10.224L297.519,86.86A127.694,127.694,0,0,0,264,80.251Zm66.715,16.346a175.329,175.329,0,0,1,43.948,29.5l-33.986,33.986A127.708,127.708,0,0,0,312.3,92.977ZM117.673,316.83a175.626,175.626,0,0,1-21.052-34.154l44.4-18.393a127.788,127.788,0,0,0,14.147,22.575ZM144,208a112,112,0,0,1,185.338-84.652l-11.315,11.315a96.017,96.017,0,0,0-157.35,62.131A7.971,7.971,0,0,0,160,200v56a7.965,7.965,0,0,0,.576,2.969l0,0,.048.119.013.034,7.158,17.893A111.8,111.8,0,0,1,144,208ZM264,416H168V368h96Zm48,52v12H120V468a4,4,0,0,1,4-4H308A4,4,0,0,1,312,468ZM152,448V434a2,2,0,0,1,2-2H278a2,2,0,0,1,2,2v14Zm24-96,12-16h56l12,16Zm218.114,8a55.962,55.962,0,0,1-29.349-8.308L282.2,300.882A54.994,54.994,0,0,0,285.26,289l73.572,42.916A30.027,30.027,0,0,0,373.947,336h14.626a190.438,190.438,0,0,0,16.144,21.8l1.889,2.2Z"/></g></svg>
