<svg id="Capa_1" enable-background="new 0 0 512.068 512.068" height="512" viewBox="0 0 512.068 512.068" width="512" xmlns="http://www.w3.org/2000/svg"><g><path d="m483.113 376.427c-6.101-5.062-13.032-9.296-20.573-12.673 9.622-10.829 15.483-25.072 15.483-40.664 0-33.801-27.499-61.299-61.3-61.299s-61.3 27.499-61.3 61.299c0 15.591 5.861 29.834 15.482 40.663-7.542 3.377-14.473 7.612-20.574 12.674-5.358 4.446-10.022 9.474-13.954 14.979-3.932-5.506-8.596-10.533-13.955-14.979-6.1-5.062-13.031-9.296-20.572-12.673 9.622-10.829 15.483-25.072 15.483-40.664 0-33.801-27.499-61.299-61.3-61.299s-61.3 27.499-61.3 61.299c0 15.591 5.861 29.834 15.482 40.663-7.542 3.377-14.473 7.612-20.574 12.674-5.358 4.446-10.022 9.474-13.954 14.979-3.932-5.506-8.596-10.533-13.955-14.979-6.1-5.062-13.031-9.296-20.572-12.673 9.622-10.829 15.483-25.072 15.483-40.664 0-33.801-27.499-61.299-61.3-61.299s-61.3 27.499-61.3 61.299c0 15.591 5.861 29.834 15.482 40.663-7.542 3.377-14.473 7.612-20.574 12.674-18.669 15.493-28.951 38.011-28.951 63.406v49.528h512.068v-49.528c0-25.395-10.283-47.913-28.955-63.406zm-66.389-84.635c17.259 0 31.3 14.041 31.3 31.299s-14.041 31.299-31.3 31.299-31.3-14.041-31.3-31.299 14.041-31.299 31.3-31.299zm-160.69 0c17.259 0 31.3 14.041 31.3 31.299s-14.041 31.299-31.3 31.299-31.3-14.041-31.3-31.299 14.041-31.299 31.3-31.299zm-160.689 0c17.259 0 31.3 14.041 31.3 31.299s-14.041 31.299-31.3 31.299-31.3-14.041-31.3-31.299 14.041-31.299 31.3-31.299zm65.344 167.569h-130.689v-19.528c0-38.299 32.818-55.442 65.344-55.442s65.346 17.143 65.346 55.442v19.528zm160.69 0h-130.69v-19.528c0-38.299 32.818-55.442 65.344-55.442s65.346 17.143 65.346 55.442zm160.689 0h-130.689v-19.528c0-38.299 32.818-55.442 65.344-55.442s65.346 17.143 65.346 55.442v19.528z"/><path d="m256.034 231.792c57.645 0 104.542-46.897 104.542-104.542s-46.897-104.542-104.542-104.542-104.542 46.897-104.542 104.542 46.898 104.542 104.542 104.542zm0-179.084c41.103 0 74.542 33.439 74.542 74.542s-33.439 74.542-74.542 74.542-74.542-33.439-74.542-74.542 33.44-74.542 74.542-74.542z"/><path d="m310.489 110.553-21.213-21.213-44 43.999-22.484-22.485-21.213 21.213 43.697 43.699z"/></g></svg>