<svg id="Capa_1" enable-background="new 0 0 511.829 511.829" height="512" viewBox="0 0 511.829 511.829" width="512" xmlns="http://www.w3.org/2000/svg"><path d="m355.749 219.202 20.422 20.422 40.948-79.309 59.47-21.316 35.24-138.89-138.89 35.241-21.741 60.657-78.246 40.398 20.421 20.421-37.141 37.141-37.141-37.141 20.421-20.421-79.028-40.803-21.594-60.252-138.89-35.241 35.241 138.89 60.253 21.596 40.803 79.028 20.421-20.421 37.141 37.141-193.002 193.001 62.375 62.375 193.001-193.001 193.001 193.001 62.375-62.375-193-193.001zm114.606-177.619-18.919 74.563-41.364 14.826-29.105-29.105 14.826-41.365zm-109.523 83.213 26.949 26.948-19.43 37.633-45.151-45.151zm-319.358-83.213 74.563 18.919 14.995 41.834-28.804 28.804-41.834-14.995zm82.996 109.741 26.745-26.745 38.053 19.647-45.151 45.151zm53.461 46.665 19.949-19.949 37.141 37.141-19.949 19.949zm-134.647 251.355 271.303-271.304 19.949 19.949-271.304 271.303zm425.899 0-19.949 19.949-171.788-171.788 19.949-19.949z"/></svg>