<svg id="Layer_3" enable-background="new 0 0 64 64" height="512" viewBox="0 0 64 64" width="512" xmlns="http://www.w3.org/2000/svg"><path d="m52 10.5v20.5c0 1.654 1.346 3 3 3s3-1.346 3-3v-20.5c0-5.238-4.262-9.5-9.5-9.5s-9.5 4.262-9.5 9.5v32.5c0 3.309-2.691 6-6 6s-6-2.691-6-6v-20c0-6.617-5.383-12-12-12s-12 5.383-12 12v16h-1c-.553 0-1 .447-1 1v18c0 2.757 2.243 5 5 5s5-2.243 5-5v-18c0-.553-.447-1-1-1h-1v-16c0-3.309 2.691-6 6-6s6 2.691 6 6v20c0 6.617 5.383 12 12 12s12-5.383 12-12v-32.5c0-1.93 1.57-3.5 3.5-3.5s3.5 1.57 3.5 3.5zm-43 30.5v2h-6v-2zm-3 20c-1.654 0-3-1.346-3-3v-13h6v13c0 1.654-1.346 3-3 3zm37-50.5v32.5c0 5.514-4.486 10-10 10s-10-4.486-10-10v-20c0-4.411-3.589-8-8-8s-8 3.589-8 8v16h-2v-16c0-5.514 4.486-10 10-10s10 4.486 10 10v20c0 4.411 3.589 8 8 8s8-3.589 8-8v-32.5c0-4.136 3.364-7.5 7.5-7.5s7.5 3.364 7.5 7.5v20.5c0 .552-.448 1-1 1s-1-.448-1-1v-20.5c0-3.032-2.468-5.5-5.5-5.5s-5.5 2.468-5.5 5.5z"/><path d="m62.707 39.293-4-4-1.414 1.414 2.293 2.293h-1.586c-.553 0-1 .447-1 1v1.586l-1.293-1.293c-.391-.391-1.023-.391-1.414 0l-1.293 1.293v-1.586c0-.553-.447-1-1-1h-1.586l2.293-2.293-1.414-1.414-4 4c-.286.286-.372.716-.217 1.09.154.374.52.617.924.617h3v3c0 .404.243.77.617.924.374.155.803.069 1.09-.217l2.293-2.293 2.293 2.293c.191.191.447.293.707.293.129 0 .259-.024.383-.076.374-.154.617-.52.617-.924v-3h3c.404 0 .77-.243.924-.617.155-.374.069-.804-.217-1.09z"/></svg>